<svg id="visual" viewBox="0 0 900 400" width="900" height="400" xmlns="http://www.w3.org/2000/svg" xmlns:xlink="http://www.w3.org/1999/xlink" version="1.1"><rect x="0" y="0" width="900" height="400" fill="#000"></rect><path d="M0 282L10.7 267.8C21.3 253.7 42.7 225.3 64.2 225.7C85.7 226 107.3 255 128.8 243.7C150.3 232.3 171.7 180.7 193 154.3C214.3 128 235.7 127 257 151C278.3 175 299.7 224 321.2 231.8C342.7 239.7 364.3 206.3 385.8 178.3C407.3 150.3 428.7 127.7 450 123.3C471.3 119 492.7 133 514.2 159.2C535.7 185.3 557.3 223.7 578.8 247.7C600.3 271.7 621.7 281.3 643 260.5C664.3 239.7 685.7 188.3 707 168.3C728.3 148.3 749.7 159.7 771.2 166.2C792.7 172.7 814.3 174.3 835.8 168.7C857.3 163 878.7 150 889.3 143.5L900 137L900 0L889.3 0C878.7 0 857.3 0 835.8 0C814.3 0 792.7 0 771.2 0C749.7 0 728.3 0 707 0C685.7 0 664.3 0 643 0C621.7 0 600.3 0 578.8 0C557.3 0 535.7 0 514.2 0C492.7 0 471.3 0 450 0C428.7 0 407.3 0 385.8 0C364.3 0 342.7 0 321.2 0C299.7 0 278.3 0 257 0C235.7 0 214.3 0 193 0C171.7 0 150.3 0 128.8 0C107.3 0 85.7 0 64.2 0C42.7 0 21.3 0 10.7 0L0 0Z" fill="#6600ff"></path></svg>