<svg id="visual" viewBox="0 0 960 440" width="960" height="440" xmlns="http://www.w3.org/2000/svg" xmlns:xlink="http://www.w3.org/1999/xlink" version="1.1"><rect x="0" y="0" width="960" height="440" fill="#000000"></rect><path d="M0 174L17.8 193.8C35.7 213.7 71.3 253.3 106.8 279.7C142.3 306 177.7 319 213.2 302.7C248.7 286.3 284.3 240.7 320 211.8C355.7 183 391.3 171 426.8 188.8C462.3 206.7 497.7 254.3 533.2 271.3C568.7 288.3 604.3 274.7 640 264.5C675.7 254.3 711.3 247.7 746.8 244.2C782.3 240.7 817.7 240.3 853.2 255C888.7 269.7 924.3 299.3 942.2 314.2L960 329L960 0L942.2 0C924.3 0 888.7 0 853.2 0C817.7 0 782.3 0 746.8 0C711.3 0 675.7 0 640 0C604.3 0 568.7 0 533.2 0C497.7 0 462.3 0 426.8 0C391.3 0 355.7 0 320 0C284.3 0 248.7 0 213.2 0C177.7 0 142.3 0 106.8 0C71.3 0 35.7 0 17.8 0L0 0Z" fill="#6600ff"></path><path d="M0 215L17.8 217C35.7 219 71.3 223 106.8 214C142.3 205 177.7 183 213.2 175.2C248.7 167.3 284.3 173.7 320 168.5C355.7 163.3 391.3 146.7 426.8 159.3C462.3 172 497.7 214 533.2 240C568.7 266 604.3 276 640 261.5C675.7 247 711.3 208 746.8 207.7C782.3 207.3 817.7 245.7 853.2 243.5C888.7 241.3 924.3 198.7 942.2 177.3L960 156L960 0L942.2 0C924.3 0 888.7 0 853.2 0C817.7 0 782.3 0 746.8 0C711.3 0 675.7 0 640 0C604.3 0 568.7 0 533.2 0C497.7 0 462.3 0 426.8 0C391.3 0 355.7 0 320 0C284.3 0 248.7 0 213.2 0C177.7 0 142.3 0 106.8 0C71.3 0 35.7 0 17.8 0L0 0Z" fill="#0059ff"></path><path d="M0 236L17.8 230.8C35.7 225.7 71.3 215.3 106.8 208.3C142.3 201.3 177.7 197.7 213.2 198.2C248.7 198.7 284.3 203.3 320 193.7C355.7 184 391.3 160 426.8 151.2C462.3 142.3 497.7 148.7 533.2 154.5C568.7 160.3 604.3 165.7 640 177.3C675.7 189 711.3 207 746.8 212.8C782.3 218.7 817.7 212.3 853.2 207.3C888.7 202.3 924.3 198.7 942.2 196.8L960 195L960 0L942.2 0C924.3 0 888.7 0 853.2 0C817.7 0 782.3 0 746.8 0C711.3 0 675.7 0 640 0C604.3 0 568.7 0 533.2 0C497.7 0 462.3 0 426.8 0C391.3 0 355.7 0 320 0C284.3 0 248.7 0 213.2 0C177.7 0 142.3 0 106.8 0C71.3 0 35.7 0 17.8 0L0 0Z" fill="#007af5"></path><path d="M0 188L17.8 169.5C35.7 151 71.3 114 106.8 106.8C142.3 99.7 177.7 122.3 213.2 132.3C248.7 142.3 284.3 139.7 320 131.7C355.7 123.7 391.3 110.3 426.8 115.7C462.3 121 497.7 145 533.2 156C568.7 167 604.3 165 640 164.5C675.7 164 711.3 165 746.8 161C782.3 157 817.7 148 853.2 142.5C888.7 137 924.3 135 942.2 134L960 133L960 0L942.2 0C924.3 0 888.7 0 853.2 0C817.7 0 782.3 0 746.8 0C711.3 0 675.7 0 640 0C604.3 0 568.7 0 533.2 0C497.7 0 462.3 0 426.8 0C391.3 0 355.7 0 320 0C284.3 0 248.7 0 213.2 0C177.7 0 142.3 0 106.8 0C71.3 0 35.7 0 17.8 0L0 0Z" fill="#0090e0"></path><path d="M0 132L17.8 123.3C35.7 114.7 71.3 97.3 106.8 87C142.3 76.7 177.7 73.3 213.2 78C248.7 82.7 284.3 95.3 320 104.7C355.7 114 391.3 120 426.8 119C462.3 118 497.7 110 533.2 107.5C568.7 105 604.3 108 640 101.2C675.7 94.3 711.3 77.7 746.8 79.3C782.3 81 817.7 101 853.2 101.7C888.7 102.3 924.3 83.7 942.2 74.3L960 65L960 0L942.2 0C924.3 0 888.7 0 853.2 0C817.7 0 782.3 0 746.8 0C711.3 0 675.7 0 640 0C604.3 0 568.7 0 533.2 0C497.7 0 462.3 0 426.8 0C391.3 0 355.7 0 320 0C284.3 0 248.7 0 213.2 0C177.7 0 142.3 0 106.8 0C71.3 0 35.7 0 17.8 0L0 0Z" fill="#0097ae"></path><path d="M0 58L17.8 63.3C35.7 68.7 71.3 79.3 106.8 84.7C142.3 90 177.7 90 213.2 80.5C248.7 71 284.3 52 320 46.5C355.7 41 391.3 49 426.8 56.8C462.3 64.7 497.7 72.3 533.2 68.3C568.7 64.3 604.3 48.7 640 43.3C675.7 38 711.3 43 746.8 51.5C782.3 60 817.7 72 853.2 71.7C888.7 71.3 924.3 58.7 942.2 52.3L960 46L960 0L942.2 0C924.3 0 888.7 0 853.2 0C817.7 0 782.3 0 746.8 0C711.3 0 675.7 0 640 0C604.3 0 568.7 0 533.2 0C497.7 0 462.3 0 426.8 0C391.3 0 355.7 0 320 0C284.3 0 248.7 0 213.2 0C177.7 0 142.3 0 106.8 0C71.3 0 35.7 0 17.8 0L0 0Z" fill="#009473"></path></svg>